<?xml version="1.0" encoding="UTF-8" standalone="no"?>
<!DOCTYPE svg PUBLIC "-//W3C//DTD SVG 1.1//EN"
 "http://www.w3.org/Graphics/SVG/1.1/DTD/svg11.dtd">
<!-- Generated by graphviz version 2.40.1 (20161225.0304)
 -->
<!-- Title: %3 Pages: 1 -->
<svg width="217pt" height="216pt"
 viewBox="0.00 0.00 217.00 216.00" xmlns="http://www.w3.org/2000/svg" xmlns:xlink="http://www.w3.org/1999/xlink">
<g id="graph0" class="graph" transform="scale(1 1) rotate(0) translate(4 212)">
<title>%3</title>
<polygon fill="#ffffff" stroke="transparent" points="-4,4 -4,-212 213,-212 213,4 -4,4"/>
<!-- 0 -->
<g id="node1" class="node">
<title>0</title>
<ellipse fill="none" stroke="#000000" cx="27" cy="-18" rx="27" ry="18"/>
<text text-anchor="middle" x="27" y="-13.8" font-family="Times,serif" font-size="14.00" fill="#000000">0</text>
</g>
<!-- 3 -->
<g id="node2" class="node">
<title>3</title>
<ellipse fill="none" stroke="#000000" cx="114" cy="-190" rx="27" ry="18"/>
<text text-anchor="middle" x="114" y="-185.8" font-family="Times,serif" font-size="14.00" fill="#000000">3</text>
</g>
<!-- 0&#45;&gt;3 -->
<g id="edge1" class="edge">
<title>0&#45;&gt;3</title>
<path fill="none" stroke="#000000" d="M21.5789,-36.0178C16.129,-57.6686 10.316,-94.5103 24,-122 36.0329,-146.1729 61.2124,-164.033 81.8862,-175.368"/>
<polygon fill="#000000" stroke="#000000" points="80.5184,-178.6019 91.0045,-180.1161 83.7514,-172.3932 80.5184,-178.6019"/>
<text text-anchor="middle" x="27.5" y="-99.8" font-family="Times,serif" font-size="14.00" fill="#000000">0</text>
</g>
<!-- 4 -->
<g id="node4" class="node">
<title>4</title>
<ellipse fill="none" stroke="#000000" cx="67" cy="-104" rx="27" ry="18"/>
<text text-anchor="middle" x="67" y="-99.8" font-family="Times,serif" font-size="14.00" fill="#000000">4</text>
</g>
<!-- 0&#45;&gt;4 -->
<g id="edge3" class="edge">
<title>0&#45;&gt;4</title>
<path fill="none" stroke="#000000" d="M35.0946,-35.4034C40.679,-47.4098 48.2104,-63.6023 54.5535,-77.24"/>
<polygon fill="#000000" stroke="#000000" points="51.5266,-79.0314 58.9174,-86.6225 57.8736,-76.0792 51.5266,-79.0314"/>
<text text-anchor="middle" x="53.5" y="-56.8" font-family="Times,serif" font-size="14.00" fill="#000000">7</text>
</g>
<!-- 1 -->
<g id="node3" class="node">
<title>1</title>
<ellipse fill="none" stroke="#000000" cx="109" cy="-18" rx="27" ry="18"/>
<text text-anchor="middle" x="109" y="-13.8" font-family="Times,serif" font-size="14.00" fill="#000000">1</text>
</g>
<!-- 1&#45;&gt;3 -->
<g id="edge2" class="edge">
<title>1&#45;&gt;3</title>
<path fill="none" stroke="#000000" d="M109.5256,-36.0819C110.3959,-66.019 112.1425,-126.1028 113.1774,-161.7011"/>
<polygon fill="#000000" stroke="#000000" points="109.6847,-162.0082 113.4739,-171.9023 116.6818,-161.8047 109.6847,-162.0082"/>
<text text-anchor="middle" x="114.5" y="-99.8" font-family="Times,serif" font-size="14.00" fill="#000000">1</text>
</g>
<!-- 1&#45;&gt;4 -->
<g id="edge5" class="edge">
<title>1&#45;&gt;4</title>
<path fill="none" stroke="#000000" d="M100.5007,-35.4034C94.5801,-47.5264 86.5754,-63.9171 79.8752,-77.6365"/>
<polygon fill="#000000" stroke="#000000" points="76.7301,-76.1009 75.4867,-86.6225 83.0201,-79.1728 76.7301,-76.1009"/>
<text text-anchor="middle" x="94.5" y="-56.8" font-family="Times,serif" font-size="14.00" fill="#000000">3</text>
</g>
<!-- 4&#45;&gt;3 -->
<g id="edge6" class="edge">
<title>4&#45;&gt;3</title>
<path fill="none" stroke="#000000" d="M76.2857,-120.9908C82.9805,-133.2409 92.1406,-150.002 99.7568,-163.938"/>
<polygon fill="#000000" stroke="#000000" points="96.8666,-165.9479 104.7336,-173.0445 103.0092,-162.5909 96.8666,-165.9479"/>
<text text-anchor="middle" x="97.5" y="-142.8" font-family="Times,serif" font-size="14.00" fill="#000000">4</text>
</g>
<!-- 2 -->
<g id="node5" class="node">
<title>2</title>
<ellipse fill="none" stroke="#000000" cx="182" cy="-104" rx="27" ry="18"/>
<text text-anchor="middle" x="182" y="-99.8" font-family="Times,serif" font-size="14.00" fill="#000000">2</text>
</g>
<!-- 2&#45;&gt;3 -->
<g id="edge4" class="edge">
<title>2&#45;&gt;3</title>
<path fill="none" stroke="#000000" d="M169.8605,-120.3549C162.4886,-130.1901 152.8274,-142.9105 144,-154 140.8712,-157.9305 137.5064,-162.0595 134.2014,-166.0624"/>
<polygon fill="#000000" stroke="#000000" points="131.3035,-164.073 127.5962,-173.9981 136.6837,-168.5512 131.3035,-164.073"/>
<text text-anchor="middle" x="157.5" y="-142.8" font-family="Times,serif" font-size="14.00" fill="#000000">2</text>
</g>
</g>
</svg>
