<?xml version="1.0" encoding="UTF-8" standalone="no"?>
<!DOCTYPE svg PUBLIC "-//W3C//DTD SVG 1.1//EN"
 "http://www.w3.org/Graphics/SVG/1.1/DTD/svg11.dtd">
<!-- Generated by graphviz version 2.40.1 (20161225.0304)
 -->
<!-- Title: %17 Pages: 1 -->
<svg width="197pt" height="302pt"
 viewBox="0.00 0.00 197.00 302.00" xmlns="http://www.w3.org/2000/svg" xmlns:xlink="http://www.w3.org/1999/xlink">
<g id="page0,1_graph0" class="graph" transform="scale(1 1) rotate(0) translate(4 298)">
<title>%17</title>
<polygon fill="#ffffff" stroke="transparent" points="-4,4 -4,-298 193,-298 193,4 -4,4"/>
<!-- 1 -->
<g id="node1" class="node">
<title>1</title>
<ellipse fill="none" stroke="#000000" cx="27" cy="-18" rx="27" ry="18"/>
<text text-anchor="middle" x="27" y="-13.8" font-family="Times,serif" font-size="14.00" fill="#000000">1</text>
</g>
<!-- 3 -->
<g id="node2" class="node">
<title>3</title>
<ellipse fill="none" stroke="#000000" cx="109" cy="-276" rx="27" ry="18"/>
<text text-anchor="middle" x="109" y="-271.8" font-family="Times,serif" font-size="14.00" fill="#000000">3</text>
</g>
<!-- 1&#45;&gt;3 -->
<g id="edge1" class="edge">
<title>1&#45;&gt;3</title>
<path fill="none" stroke="#000000" d="M25.9719,-36.1708C24.5926,-76.4923 26.2911,-175.0115 70,-240 73.7122,-245.5195 78.4319,-250.7887 83.2957,-255.5099"/>
<polygon fill="#000000" stroke="#000000" points="81.1743,-258.3108 90.9335,-262.435 85.8762,-253.1251 81.1743,-258.3108"/>
<text text-anchor="middle" x="39.5" y="-142.8" font-family="Times,serif" font-size="14.00" fill="#000000">1</text>
</g>
<!-- 4 -->
<g id="node5" class="node">
<title>4</title>
<ellipse fill="none" stroke="#000000" cx="70" cy="-104" rx="27" ry="18"/>
<text text-anchor="middle" x="70" y="-99.8" font-family="Times,serif" font-size="14.00" fill="#000000">4</text>
</g>
<!-- 1&#45;&gt;4 -->
<g id="edge9" class="edge">
<title>1&#45;&gt;4</title>
<path fill="none" stroke="#000000" d="M35.7017,-35.4034C41.8031,-47.6061 50.0665,-64.133 56.9535,-77.907"/>
<polygon fill="#000000" stroke="#000000" points="53.8553,-79.537 61.458,-86.916 60.1163,-76.4064 53.8553,-79.537"/>
<text text-anchor="middle" x="55.5" y="-56.8" font-family="Times,serif" font-size="14.00" fill="#000000">3</text>
</g>
<!-- 5 -->
<g id="node3" class="node">
<title>5</title>
<ellipse fill="none" stroke="#000000" cx="109" cy="-190" rx="27" ry="18"/>
<text text-anchor="middle" x="109" y="-185.8" font-family="Times,serif" font-size="14.00" fill="#000000">5</text>
</g>
<!-- 5&#45;&gt;3 -->
<g id="edge2" class="edge">
<title>5&#45;&gt;3</title>
<path fill="none" stroke="#000000" d="M109,-208.2384C109,-219.6403 109,-234.5658 109,-247.506"/>
<polygon fill="#000000" stroke="#000000" points="105.5001,-247.7879 109,-257.7879 112.5001,-247.7879 105.5001,-247.7879"/>
<text text-anchor="middle" x="112.5" y="-228.8" font-family="Times,serif" font-size="14.00" fill="#000000">6</text>
</g>
<!-- 2 -->
<g id="node4" class="node">
<title>2</title>
<ellipse fill="none" stroke="#000000" cx="153" cy="-18" rx="27" ry="18"/>
<text text-anchor="middle" x="153" y="-13.8" font-family="Times,serif" font-size="14.00" fill="#000000">2</text>
</g>
<!-- 2&#45;&gt;3 -->
<g id="edge6" class="edge">
<title>2&#45;&gt;3</title>
<path fill="none" stroke="#000000" d="M163.5035,-34.853C171.1548,-48.1735 180.8728,-67.5369 185,-86 188.4904,-101.6146 187.1705,-106.1479 185,-122 177.562,-176.324 179.8863,-194.6959 149,-240 145.2009,-245.5725 140.3638,-250.8648 135.3762,-255.5919"/>
<polygon fill="#000000" stroke="#000000" points="132.7185,-253.2696 127.5421,-262.5138 137.3535,-258.5153 132.7185,-253.2696"/>
<text text-anchor="middle" x="185.5" y="-142.8" font-family="Times,serif" font-size="14.00" fill="#000000">2</text>
</g>
<!-- 2&#45;&gt;4 -->
<g id="edge3" class="edge">
<title>2&#45;&gt;4</title>
<path fill="none" stroke="#000000" d="M138.1613,-33.3751C125.2962,-46.7051 106.5032,-66.1775 91.907,-81.3012"/>
<polygon fill="#000000" stroke="#000000" points="89.1363,-79.132 84.7103,-88.758 94.1732,-83.9931 89.1363,-79.132"/>
<text text-anchor="middle" x="119.5" y="-56.8" font-family="Times,serif" font-size="14.00" fill="#000000">8</text>
</g>
<!-- 4&#45;&gt;3 -->
<g id="edge8" class="edge">
<title>4&#45;&gt;3</title>
<path fill="none" stroke="#000000" d="M65.9131,-122.0824C61.9164,-143.1653 57.5546,-178.8427 66,-208 70.6414,-224.0242 80.3118,-239.8978 89.3082,-252.2733"/>
<polygon fill="#000000" stroke="#000000" points="86.5236,-254.3937 95.3588,-260.241 92.0984,-250.1603 86.5236,-254.3937"/>
<text text-anchor="middle" x="69.5" y="-185.8" font-family="Times,serif" font-size="14.00" fill="#000000">4</text>
</g>
<!-- 4&#45;&gt;5 -->
<g id="edge5" class="edge">
<title>4&#45;&gt;5</title>
<path fill="none" stroke="#000000" d="M77.8922,-121.4034C83.337,-133.4098 90.6801,-149.6023 96.8647,-163.24"/>
<polygon fill="#000000" stroke="#000000" points="93.8018,-164.9607 101.1195,-172.6225 100.177,-162.0697 93.8018,-164.9607"/>
<text text-anchor="middle" x="95.5" y="-142.8" font-family="Times,serif" font-size="14.00" fill="#000000">5</text>
</g>
<!-- 0 -->
<g id="node6" class="node">
<title>0</title>
<ellipse fill="none" stroke="#000000" cx="149" cy="-104" rx="27" ry="18"/>
<text text-anchor="middle" x="149" y="-99.8" font-family="Times,serif" font-size="14.00" fill="#000000">0</text>
</g>
<!-- 0&#45;&gt;3 -->
<g id="edge4" class="edge">
<title>0&#45;&gt;3</title>
<path fill="none" stroke="#000000" d="M150.7012,-122.0267C152.1417,-143.0572 152.8822,-178.6854 145,-208 140.9646,-223.008 133.1616,-238.4195 125.8491,-250.768"/>
<polygon fill="#000000" stroke="#000000" points="122.6984,-249.2088 120.4232,-259.5564 128.6547,-252.8861 122.6984,-249.2088"/>
<text text-anchor="middle" x="153.5" y="-185.8" font-family="Times,serif" font-size="14.00" fill="#000000">0</text>
</g>
<!-- 0&#45;&gt;5 -->
<g id="edge7" class="edge">
<title>0&#45;&gt;5</title>
<path fill="none" stroke="#000000" d="M140.9054,-121.4034C135.321,-133.4098 127.7896,-149.6023 121.4465,-163.24"/>
<polygon fill="#000000" stroke="#000000" points="118.1264,-162.0792 117.0826,-172.6225 124.4734,-165.0314 118.1264,-162.0792"/>
<text text-anchor="middle" x="134.5" y="-142.8" font-family="Times,serif" font-size="14.00" fill="#000000">9</text>
</g>
</g>
</svg>
